<svg id="Group_801" data-name="Group 801" xmlns="http://www.w3.org/2000/svg" width="138.285" height="99.15" viewBox="0 0 138.285 99.15">
  <g id="Group_247" data-name="Group 247" transform="translate(22.562 35.17)">
    <path id="Path_92" data-name="Path 92" d="M84.405,46.61a3.171,3.171,0,0,1,1.849.587v1.222a1.632,1.632,0,0,0-1.367-1.013c-.981,0-1.1.49-1.094.74a1.223,1.223,0,0,0,.555.756,6.554,6.554,0,0,1,1.89,1.407,2.174,2.174,0,0,1,.45,1.27,2.536,2.536,0,0,1-2.629,2.4,3.373,3.373,0,0,1-1.841-.523v-1.3a1.639,1.639,0,0,0,1.407,1.029,1.3,1.3,0,0,0,1.439-1.2,1.256,1.256,0,0,0-.772-1.061,9.441,9.441,0,0,1-1-.627,2.311,2.311,0,0,1-1.085-1.954C82.194,47.374,83.247,46.61,84.405,46.61Z" transform="translate(-38.669 -44.302)" fill="#fff"/>
    <path id="Path_93" data-name="Path 93" d="M78.461,53.185a1.9,1.9,0,0,1-.8-.177,2.006,2.006,0,0,1-.973-1.52c.683-.828,1.536-.651,2.613-1.785,1.423-1.488.37-3.064-1.576-3.064h-.016c-2,.008-3.064,1.857-3.064,3.852a3.237,3.237,0,0,0,3.2,3.514c1.576,0,2.075-.579,2.075-.579l.008-1.182A1.657,1.657,0,0,1,78.461,53.185Zm-.852-5.966h.08c1,0,.748,1.439.434,2.018-.49.9-1.126,1-1.552,1.455C76.58,50.693,76.339,47.315,77.609,47.219Z" transform="translate(-37.188 -44.308)" fill="#fff"/>
    <path id="Path_94" data-name="Path 94" d="M56.976,46.658c.86,0,1.166.338,1.262,1.48,0,0,.3-1.439,1.512-1.439a.966.966,0,0,1,.989.523v1.238a1.489,1.489,0,0,0-1.158-.547,1.523,1.523,0,0,0-.844.249,1.044,1.044,0,0,0-.474.74V52.5a1.858,1.858,0,0,0,.74,1.48h-1.93s-.587-.024-.587-1.471v-4.39c0-1.182-.675-1.463-.675-1.463Z" transform="translate(-33.497 -44.31)" fill="#fff"/>
    <path id="Path_95" data-name="Path 95" d="M53.2,43.74a.885.885,0,1,1-.9.884A.891.891,0,0,1,53.2,43.74Z" transform="translate(-32.809 -43.74)" fill="#fff"/>
    <path id="Path_96" data-name="Path 96" d="M52.656,46.68c.41,0,1.27,0,1.27,1.64v4.2l.008.008A1.852,1.852,0,0,0,54.682,54h-1.93c-.016,0-.6-.008-.6-1.455v-4.4c0-1.158-.667-1.455-.667-1.455h1.166Z" transform="translate(-32.65 -44.316)" fill="#fff"/>
    <path id="Path_97" data-name="Path 97" d="M35.425,52.409a1.269,1.269,0,0,1-1.4,1.15H29.435s-.563-.04-.563-1.455l-.024-5.645a2.759,2.759,0,0,0-.788-2.1h4.656c2.38,0,2.573,1.632,2.573,1.632a5.17,5.17,0,0,0-3.176-.643l-1.423-.008a2.656,2.656,0,0,1,.209,1.118v1H31.9A2.217,2.217,0,0,1,33.97,48.71a2.87,2.87,0,0,0-1.488-.33c-.2,0-.394.008-.579.008-.539,0-1.005.008-1.005.008v3.1c.056.482.008,1.045.691,1.045h2.155c1.367,0,1.7-.683,1.7-.683Z" transform="translate(-28.06 -43.861)" fill="#fff"/>
    <path id="Path_98" data-name="Path 98" d="M46.045,52.516v-3.6a1.089,1.089,0,0,0-2.123-.3l.008,3.892A1.924,1.924,0,0,0,44.67,54H42.732s-.579-.008-.579-1.471v-3.61a1.073,1.073,0,0,0-.981-1.045,1.1,1.1,0,0,0-1.15.756v3.884A1.917,1.917,0,0,0,40.762,54h-1.93s-.587-.024-.587-1.471V48.142c0-1.182-.675-1.463-.675-1.463h1.174c1.2,0,1.23,1.367,1.23,1.367A1.959,1.959,0,0,1,41.84,46.63a2.062,2.062,0,0,1,2.026,1.4,1.884,1.884,0,0,1,1.761-1.383,1.932,1.932,0,0,1,2.179,1.938v3.948A1.893,1.893,0,0,0,48.546,54S47.613,54,46.608,54C46.6,53.979,46.053,53.971,46.045,52.516Z" transform="translate(-29.923 -44.306)" fill="#fff"/>
    <path id="Path_99" data-name="Path 99" d="M66.768,52.524V48.415c0-.981-1.094-1.745-2.251-1.745a3.177,3.177,0,0,0-1.817.539v1.278a1.619,1.619,0,0,1,1.407-1.013c.981,0,1.053.49,1.053.732a1.067,1.067,0,0,1-.145.764c-.45.788-3.948.957-3.409,3.659a1.614,1.614,0,0,0,1.825,1.383,1.746,1.746,0,0,0,1.616-.876c.129.812.547.86.547.86,1.013,0,1.93.008,1.93.008A1.891,1.891,0,0,1,66.768,52.524Zm-2.895.635a.864.864,0,0,1-.756-.925c0-1.825,1.5-2.083,1.9-2.565l.008,3.08A1.368,1.368,0,0,1,63.874,53.159Z" transform="translate(-34.621 -44.314)" fill="#fff"/>
    <path id="Path_100" data-name="Path 100" d="M70.05,52.174v-5.09l-1.23-.024a11.445,11.445,0,0,0,1.7-1.005,5.949,5.949,0,0,0,1.3-1.455v1.672h1.624l-.008,1.1a2.464,2.464,0,0,0-1.142-.289h-.474v5.074a1.823,1.823,0,0,0,.748,1.431h-1.93C70.637,53.582,70.05,53.582,70.05,52.174Z" transform="translate(-36.046 -43.908)" fill="#fff"/>
  </g>
  <path id="Path_101" data-name="Path 101" d="M66.98,72.544c-.78.8-1.584,1.616-2.436,2.46C59.88,79.6,54.155,85.24,48.148,91.239c-3.9-11.225-13.42-24.677-34.889-47.175l-2.034-2.115a3.493,3.493,0,0,1,.04-4.889L43.412,4.72c6.843,6.593,21.437,20.641,22.2,21.437,4.036,4.213,7.92,8.121,11.1,13.283a18.876,18.876,0,0,1,2.637,13.251h1.383a19.062,19.062,0,0,0-2.517-14.377h0c-3.007-4.849-6.577-8.563-10.365-12.5l-.788-.82C66.079,23.953,42.375,1.15,41.362.185L41.177,0,.185,41.233,0,41.418l1.367,1.407C27.331,69.665,38.049,84.8,40.911,98.66l.1.49.354-.354c8.507-8.58,17.054-17.014,23.551-23.407.989-.973,1.906-1.914,2.806-2.838H66.98Z" fill="#fff"/>
  <g id="Group_248" data-name="Group 248" transform="translate(55.473 50.343)">
    <path id="Path_102" data-name="Path 102" d="M75.342,62.878a6.912,6.912,0,0,1,3.256.659,4.708,4.708,0,0,1,1.922,1.882,8.39,8.39,0,0,1,.925,2.943,31.362,31.362,0,0,1-.064,8.25,8.5,8.5,0,0,1-1.061,3.08,4.65,4.65,0,0,1-2.018,1.8,7.58,7.58,0,0,1-3.2.6H68.99V62.87h6.352Zm-.756,16.363a3.315,3.315,0,0,0,1.64-.346,2.4,2.4,0,0,0,.981-1.158,6.793,6.793,0,0,0,.482-2.123q.121-1.315.121-3.281c0-1.094-.04-2.05-.1-2.879a7.073,7.073,0,0,0-.442-2.058,2.571,2.571,0,0,0-1-1.238,3.244,3.244,0,0,0-1.761-.418h-1.64V79.249h1.721Z" transform="translate(-68.99 -62.661)" fill="#fff"/>
    <path id="Path_103" data-name="Path 103" d="M90.549,77.635a8.011,8.011,0,0,0,.1,1.254,4.131,4.131,0,0,0,.314,1.077,2.1,2.1,0,0,0,.563.756,1.349,1.349,0,0,0,.86.281,1.515,1.515,0,0,0,1.375-.675,5.023,5.023,0,0,0,.6-2.042h3.337a5.847,5.847,0,0,1-1.343,3.852,5.135,5.135,0,0,1-3.9,1.319,6.181,6.181,0,0,1-3.152-.675A4.113,4.113,0,0,1,87.63,81a6.906,6.906,0,0,1-.659-2.477c-.08-.917-.121-1.833-.121-2.742a18.556,18.556,0,0,1,.2-2.8,6.8,6.8,0,0,1,.8-2.4,4.407,4.407,0,0,1,1.737-1.673,6.326,6.326,0,0,1,3.015-.619,5.926,5.926,0,0,1,2.653.523,3.961,3.961,0,0,1,1.624,1.48,6.066,6.066,0,0,1,.8,2.316,19.311,19.311,0,0,1,.217,3.031v.836H90.557v1.15Zm3.691-4.824a3.821,3.821,0,0,0-.281-1.077,1.52,1.52,0,0,0-.563-.675,1.714,1.714,0,0,0-.925-.233,1.571,1.571,0,0,0-.925.257,1.827,1.827,0,0,0-.579.675,3.353,3.353,0,0,0-.314.933,5.49,5.49,0,0,0-.1,1.021v.563h3.8C94.328,73.719,94.288,73.229,94.239,72.811Z" transform="translate(-72.489 -63.725)" fill="#fff"/>
    <path id="Path_104" data-name="Path 104" d="M106.655,62.88V82.1H102.94V62.88Z" transform="translate(-75.642 -62.663)" fill="#fff"/>
    <path id="Path_105" data-name="Path 105" d="M114.275,62.61v3.176H110.56V62.61Zm0,4.953V82.045H110.56V67.563Z" transform="translate(-77.134 -62.61)" fill="#fff"/>
    <path id="Path_106" data-name="Path 106" d="M128.563,68.77l-3.634,14.481h-4.31L116.88,68.77h3.876l2.075,10.365h.056l1.962-10.365Z" transform="translate(-78.373 -63.817)" fill="#fff"/>
    <path id="Path_107" data-name="Path 107" d="M135.707,77.635a8.01,8.01,0,0,0,.1,1.254,4.129,4.129,0,0,0,.314,1.077,2.094,2.094,0,0,0,.563.756,1.349,1.349,0,0,0,.86.281,1.515,1.515,0,0,0,1.375-.675,5.023,5.023,0,0,0,.6-2.042h3.337a5.847,5.847,0,0,1-1.343,3.852,5.135,5.135,0,0,1-3.9,1.319,6.181,6.181,0,0,1-3.152-.675A4.18,4.18,0,0,1,132.78,81a6.906,6.906,0,0,1-.659-2.477c-.08-.917-.121-1.833-.121-2.742a18.552,18.552,0,0,1,.2-2.8,6.8,6.8,0,0,1,.8-2.4,4.407,4.407,0,0,1,1.737-1.673,6.326,6.326,0,0,1,3.015-.619,5.926,5.926,0,0,1,2.653.523,3.961,3.961,0,0,1,1.624,1.48,6.2,6.2,0,0,1,.8,2.316,19.313,19.313,0,0,1,.217,3.031v.836h-7.349Zm3.691-4.824a3.824,3.824,0,0,0-.281-1.077,1.52,1.52,0,0,0-.563-.675,1.7,1.7,0,0,0-.925-.233,1.615,1.615,0,0,0-.933.257,1.756,1.756,0,0,0-.579.675,3.352,3.352,0,0,0-.314.933,5.49,5.49,0,0,0-.1,1.021v.563h3.8A14.338,14.338,0,0,0,139.4,72.811Z" transform="translate(-81.335 -63.725)" fill="#fff"/>
    <path id="Path_108" data-name="Path 108" d="M151.554,68.678v1.938h.056a5.241,5.241,0,0,1,1.375-1.681,3.1,3.1,0,0,1,1.962-.635c.1,0,.217.008.338.016s.233.024.338.04V71.91c-.2-.016-.394-.032-.579-.04s-.378-.016-.579-.016a3.63,3.63,0,0,0-.965.137,2.613,2.613,0,0,0-.885.442,2.28,2.28,0,0,0-.643.8,2.783,2.783,0,0,0-.241,1.222v8.692H148V68.678Z" transform="translate(-84.47 -63.725)" fill="#fff"/>
    <path id="Path_109" data-name="Path 109" d="M161.983,78.906a2.261,2.261,0,0,0,.5,1.52,1.792,1.792,0,0,0,1.439.579,2.072,2.072,0,0,0,1.375-.434,1.608,1.608,0,0,0,.515-1.295,1.364,1.364,0,0,0-.4-1.061,3.189,3.189,0,0,0-.941-.579l-2.613-.941a5.034,5.034,0,0,1-2.316-1.52,3.9,3.9,0,0,1-.78-2.517,4.68,4.68,0,0,1,.3-1.681A3.508,3.508,0,0,1,160,69.595a4.636,4.636,0,0,1,1.656-.941,7.494,7.494,0,0,1,2.436-.354,5.507,5.507,0,0,1,3.739,1.077,3.861,3.861,0,0,1,1.214,3.039v.6h-3.337a2.976,2.976,0,0,0-.362-1.656,1.433,1.433,0,0,0-1.278-.523,1.952,1.952,0,0,0-1.222.394,1.374,1.374,0,0,0-.523,1.174,1.54,1.54,0,0,0,.338.973,2.545,2.545,0,0,0,1.278.724l2.235.756a5.055,5.055,0,0,1,2.477,1.544,4.2,4.2,0,0,1,.724,2.6,4.655,4.655,0,0,1-.4,2,3.941,3.941,0,0,1-1.118,1.415,4.315,4.315,0,0,1-1.7.8,9.089,9.089,0,0,1-2.163.241,9.494,9.494,0,0,1-2.6-.3,3.728,3.728,0,0,1-1.64-.884,3.217,3.217,0,0,1-.844-1.439,6.918,6.918,0,0,1-.241-1.9v-.515h3.337v.482Z" transform="translate(-86.56 -63.725)" fill="#fff"/>
  </g>
</svg>
