<svg xmlns="http://www.w3.org/2000/svg" width="58" height="58" viewBox="0 0 58 58">
  <g id="Group_6826" data-name="Group 6826" transform="translate(-352.638 -192.635)">
    <path id="Path_10507" data-name="Path 10507" d="M369.638,249.635a9,9,0,0,0,9-9" fill="none" stroke="#365abd" stroke-linejoin="round" stroke-width="2"/>
    <path id="Path_10508" data-name="Path 10508" d="M393.638,249.635a9,9,0,0,1-9-9" fill="none" stroke="#365abd" stroke-linejoin="round" stroke-width="2"/>
    <line id="Line_497" data-name="Line 497" x1="24" transform="translate(369.638 249.635)" fill="none" stroke="#365abd" stroke-linejoin="round" stroke-width="2"/>
    <g id="Group_6825" data-name="Group 6825">
      <path id="Path_10509" data-name="Path 10509" d="M391.437,201.635a10.058,10.058,0,0,1,.2,2,9.942,9.942,0,0,1-2.014,6l-7.986,10-7.987-10a9.972,9.972,0,0,1-1.812-8h-18.2v40h56v-40Z" fill="none" stroke="#365abd" stroke-linejoin="round" stroke-width="2"/>
      <path id="Path_10510" data-name="Path 10510" d="M391.437,201.635a10,10,0,1,0-17.786,8l7.987,10,7.986-10a9.942,9.942,0,0,0,2.014-6A10.058,10.058,0,0,0,391.437,201.635Zm-9.8,7a4.991,4.991,0,1,1,5-5A5,5,0,0,1,381.638,208.635Z" fill="none" stroke="#365abd" stroke-linejoin="round" stroke-width="2"/>
    </g>
    <line id="Line_498" data-name="Line 498" x2="12" transform="translate(375.638 224.635)" fill="none" stroke="#365abd" stroke-linejoin="round" stroke-width="2"/>
  </g>
</svg>