<svg xmlns="http://www.w3.org/2000/svg" width="58" height="50.27" viewBox="0 0 58 50.27">
  <g id="Group_6844" data-name="Group 6844" transform="translate(-352.638 -366.857)">
    <g id="Group_6844-2" data-name="Group 6844">
      <path id="Union_1" data-name="Union 1" d="M353.638,416.126v-3.249c0-3.575,5.85-6.5,13-6.5s13,2.925,13,6.5v3.249Zm18.5-20a6,6,0,1,0-6,6A6,6,0,0,0,372.138,396.127Z" fill="none" stroke="#365abd" stroke-linejoin="round" stroke-width="2"/>
    </g>
    <path id="Union_1-2" data-name="Union 1" d="M391.638,415.857v-2.25c0-2.475,4.05-4.5,9-4.5s9,2.025,9,4.5v2.25Zm4.5-15.75a4.5,4.5,0,1,1,4.5,4.5A4.5,4.5,0,0,1,396.138,400.107Z" fill="none" stroke="#365abd" stroke-linejoin="round" stroke-width="2"/>
    <g id="Group_6846" data-name="Group 6846">
      <g id="Group_6845" data-name="Group 6845">
        <line id="Line_487" data-name="Line 487" x2="11.371" transform="translate(372.922 374.064)" fill="none" stroke="#365abd" stroke-linejoin="round" stroke-width="2"/>
        <line id="Line_488" data-name="Line 488" x2="8.544" transform="translate(374.336 378.199)" fill="none" stroke="#365abd" stroke-linejoin="round" stroke-width="2"/>
        <g id="Group_6808-2" data-name="Group 6808-2">
          <path id="Path_10465" data-name="Path 10465" d="M378.167,384.266c.145,0,.29.005.437.005,6.222,0,11.267-3.674,11.267-8.207s-5.045-8.207-11.267-8.207-11.267,3.674-11.267,8.207c0,3.016,2.232,5.653,5.559,7.078h0l.153,2.985,5.118-1.855Z" fill="none" stroke="#365abd" stroke-linejoin="round" stroke-width="2"/>
        </g>
      </g>
      <g id="Group_6808-2-2" data-name="Group 6808-2">
        <path id="Path_10465-2" data-name="Path 10465" d="M380.329,384.175a4.607,4.607,0,0,0-.705,2.421c0,3.281,3.652,5.942,8.157,5.942.106,0,.211,0,.316,0v0l3.706,1.343.111-2.161h0c2.408-1.031,4.024-2.941,4.024-5.124,0-3.242-3.563-5.877-7.992-5.941" fill="none" stroke="#365abd" stroke-linejoin="round" stroke-width="2"/>
      </g>
    </g>
  </g>
</svg>