<svg xmlns="http://www.w3.org/2000/svg" width="48" height="48" viewBox="0 0 48 48">
  <g id="Group_7416" data-name="Group 7416" transform="translate(-105.638 -700.512)">
    <g id="Group_7415" data-name="Group 7415">
      <rect id="Rectangle_3250" data-name="Rectangle 3250" width="48" height="48" transform="translate(105.638 700.511)" fill="#d61921"/>
      <g id="Group_7414" data-name="Group 7414">
        <path id="Path_10925" data-name="Path 10925" d="M133.593,706.555c-.1.1-1.517,1.379-1.649,1.517a2.3,2.3,0,0,0-.482,1.382c0,.168,0,4.2,0,4.343a1.62,1.62,0,0,1-.348.9c-.107.109-.777.716-.836.781l.379.006c.123-.118,1.411-1.259,1.546-1.413a2.227,2.227,0,0,0,.592-1.5V708.4a1.617,1.617,0,0,1,.444-1.142c.154-.172.662-.594.751-.69Z" fill="#fff"/>
        <path id="Path_10926" data-name="Path 10926" d="M133.836,717.708v1.732s.506.523.606.629c.467.5.462,1.4-1.018,2.844a3,3,0,0,1-2.017.951h-2.651l1.577,1.377h1.057a3.867,3.867,0,0,0,2.7-1.107,3.24,3.24,0,0,0,.886-2.331v-2.258a1.823,1.823,0,0,0-.609-1.332c-.072-.072-.531-.505-.531-.505" fill="#fff"/>
        <path id="Path_10927" data-name="Path 10927" d="M123.524,712h-.544a1.429,1.429,0,0,1,.584,1.127c0,.264,0,1.97,0,2.139.012.571.423,2.707,2.348,2.707h5.531s.019,3.394.019,3.539a1.53,1.53,0,0,1-.35,1.08c-.144.148-.856.8-.856.8l.4-.01c.162-.12,1.378-1.23,1.491-1.356a2.182,2.182,0,0,0,.652-1.767V718s.492-.524.637-.644,1.1-1.029,1.1-1.029c0,.876.417,1.263.846,1.263a.822.822,0,0,0,.566-.24c.2-.192.853-.79,1-.933.448-.443.7-1.828-.393-1.828h-.011c-.662.005-1.45.962-1.542,1.076a2.317,2.317,0,0,1-.462-.487v.848a1.326,1.326,0,0,1-.878.469H132.8v-.855a1.732,1.732,0,0,1,.344-1.04c.145-.154.795-.737.854-.791l-.4,0c-.152.118-1.5,1.347-1.666,1.538a2.432,2.432,0,0,0-.476,1.144l-6.263.006a1.407,1.407,0,0,1-1.289-1.425c0-.082.022-1.6.022-1.6,0-1.31-.341-1.448-.4-1.474m12.68,4.719a.8.8,0,0,1-.471-.215,5.417,5.417,0,0,1-.536-.619.949.949,0,0,1,.627-.2.564.564,0,0,1,.451.154c.326.448.252.876-.071.876" fill="#fff"/>
        <path id="Path_10928" data-name="Path 10928" d="M127.485,718.615l-1.058,1.057c.72.721.963,1.08,1.034,1.406.056-.056,1.022-.859,1.022-1.161,0-.442-.292-.593-1-1.3" fill="#fff"/>
        <path id="Path_10929" data-name="Path 10929" d="M129.705,706.542s-.192.186-.723.716c-.283.283-.2.893.39,1.485,0,0,.015,1.087.015,1.49a.5.5,0,0,1-.127.273,3.072,3.072,0,0,0-1.646-.785h-1.172a2.147,2.147,0,0,0-1.4.732,1.126,1.126,0,0,0-.075,1.456l.809.808a7.446,7.446,0,0,1,0-2.22.6.6,0,0,1,.559-.418.443.443,0,0,1,.254.078,17.859,17.859,0,0,1,1.661,1.368s-2.137,2.233-2.222,2.318a1.161,1.161,0,0,1-.672.313h-.015a.8.8,0,0,1-.659-.373s-.006,1-.006,1.089c0,.361.476.721.939.721h2.935a.927.927,0,0,0,.65-.24c.12-.109.909-.9.986-.987a.78.78,0,0,0,.21-.565c0-.1,0-.589,0-1.115a3.067,3.067,0,0,0-.851-1.93s.174-.132.185-.593c0-.127,0-1.146,0-1.146s.352.332.371.47c0,0,.374-.383.616-.626.274-.273-.182-.848-.394-1.061a1.916,1.916,0,0,1-.611-1.258m-3.682,7.7a2.417,2.417,0,0,0,.611-.541c.059-.064,1.883-1.94,1.883-1.94a12.607,12.607,0,0,1,1.37,1.645c.16.279.338.836-.559.836h-3.305" fill="#fff"/>
        <path id="Path_10930" data-name="Path 10930" d="M122.864,716.708h-.543a1.3,1.3,0,0,1,.583,1.147v2.638a3.3,3.3,0,0,0,3.136,3.3h1.438a2.072,2.072,0,0,0,1.687-.672c.192-.17.441-.449.532-.55a1.828,1.828,0,0,0,.62-1.493v-.864a1.588,1.588,0,0,0-.64-1.266c-.135-.134-.5-.485-.5-.485v1.769s.362.385.522.511a.912.912,0,0,1-.542,1.612c-.138,0-2.962,0-3.155.007h-.047a2.8,2.8,0,0,1-2.686-2.753v-1.433c0-1.474-.4-1.474-.4-1.474" fill="#fff"/>
        <path id="Path_10931" data-name="Path 10931" d="M125.323,718.62l-1.057,1.057c.721.72.966,1.08,1.035,1.4.056-.056,1.022-.859,1.022-1.16,0-.443-.29-.592-1-1.3" fill="#fff"/>
        <path id="Path_10932" data-name="Path 10932" d="M114.468,725.241H110.82a2.167,2.167,0,0,1,.615,1.646l.019,4.42c0,1.11.445,1.141.445,1.141h3.594a.993.993,0,0,0,1.1-.9l.013-.423s-.26.532-1.333.532l-1.69,0c-.534,0-.494-.442-.54-.822v-2.425s.37-.009.789-.009c.141,0,.294-.006.45-.006a2.283,2.283,0,0,1,1.169.258,1.744,1.744,0,0,0-1.621-.984h-.787v-.778a2.08,2.08,0,0,0-.164-.877l1.115.005a4.044,4.044,0,0,1,2.491.5s-.147-1.28-2.015-1.28" fill="#fff"/>
        <path id="Path_10933" data-name="Path 10933" d="M120.163,726.665a1.54,1.54,0,0,0-1.463,1.112s-.027-1.074-.965-1.074l-.918,0s.531.219.531,1.147v3.433c0,1.133.458,1.153.458,1.153h1.514a1.466,1.466,0,0,1-.58-1.163V728.23a.855.855,0,0,1,.9-.595.839.839,0,0,1,.768.818l0,2.831c0,1.15.453,1.152.453,1.152h1.52a1.5,1.5,0,0,1-.582-1.162l0-3.046a.853.853,0,0,1,1.662.236s0,2.582,0,2.823c.006,1.137.433,1.147.448,1.147h0c.792,0,1.52,0,1.52,0a1.474,1.474,0,0,1-.579-1.151v-3.093a1.517,1.517,0,0,0-1.712-1.519,1.478,1.478,0,0,0-1.379,1.085,1.618,1.618,0,0,0-1.588-1.093" fill="#fff"/>
        <path id="Path_10934" data-name="Path 10934" d="M126.5,726.7h-.917s.526.233.526,1.141l0,3.442v.006c0,1.135.453,1.142.463,1.142.792,0,1.514,0,1.514,0a1.457,1.457,0,0,1-.582-1.154l-.006-.005,0-3.291c0-1.284-.674-1.284-1-1.284" fill="#fff"/>
        <path id="Path_10935" data-name="Path 10935" d="M129.215,726.7l-.917,0s.532.218.532,1.146v3.437c0,1.135.457,1.154.457,1.154H130.8a1.468,1.468,0,0,1-.58-1.163v-2.815a.821.821,0,0,1,.373-.58,1.213,1.213,0,0,1,.663-.2,1.166,1.166,0,0,1,.907.425v-.971a.762.762,0,0,0-.776-.413c-.95,0-1.183,1.131-1.183,1.131-.077-.893-.316-1.157-.988-1.157" fill="#fff"/>
        <path id="Path_10936" data-name="Path 10936" d="M138.854,725.39a4.71,4.71,0,0,1-1.02,1.141,8.784,8.784,0,0,1-1.332.79l.961.016v3.99c0,1.107.463,1.107.463,1.107.831,0,1.511,0,1.511,0a1.431,1.431,0,0,1-.584-1.119V727.34c.4,0,.124,0,.374,0a1.944,1.944,0,0,1,.9.225l0-.865h-1.275Z" fill="#fff"/>
        <path id="Path_10937" data-name="Path 10937" d="M142.594,726.674h-.016c-1.568.008-2.4,1.456-2.4,3.015a2.539,2.539,0,0,0,2.508,2.756c1.234,0,1.623-.452,1.623-.452l0-.925a1.3,1.3,0,0,1-1.152.739,1.354,1.354,0,0,1-1.38-1.331c.534-.652,1.2-.512,2.05-1.4,1.114-1.164.29-2.4-1.237-2.4m-.908,3.179s-.191-2.647.8-2.721l.066,0c.783,0,.589,1.13.344,1.582-.383.707-.884.78-1.215,1.142" fill="#fff"/>
        <path id="Path_10938" data-name="Path 10938" d="M126.793,724.855a.692.692,0,1,0,.707.691.7.7,0,0,0-.707-.691" fill="#fff"/>
        <path id="Path_10939" data-name="Path 10939" d="M134.244,726.7a2.5,2.5,0,0,0-1.422.42v1a1.274,1.274,0,0,1,1.1-.793c.771,0,.828.385.823.576a.812.812,0,0,1-.116.595c-.352.618-3.092.749-2.671,2.868a1.265,1.265,0,0,0,1.43,1.085,1.369,1.369,0,0,0,1.268-.689c.1.638.425.675.425.675.792,0,1.514,0,1.514,0a1.444,1.444,0,0,1-.589-1.147v-3.222c0-.771-.855-1.37-1.764-1.37m-.505,5.09a.68.68,0,0,1-.593-.728c0-1.431,1.172-1.629,1.485-2.01l0,2.412a1.028,1.028,0,0,1-.9.326" fill="#fff"/>
        <path id="Path_10940" data-name="Path 10940" d="M146.659,726.66a1.578,1.578,0,0,0-1.716,1.37,1.808,1.808,0,0,0,.852,1.527,6.714,6.714,0,0,0,.781.49.983.983,0,0,1,.606.833,1.014,1.014,0,0,1-1.125.937,1.286,1.286,0,0,1-1.1-.808v1.024a2.665,2.665,0,0,0,1.442.406,1.988,1.988,0,0,0,2.059-1.883,1.68,1.68,0,0,0-.354-1,5.244,5.244,0,0,0-1.484-1.1.967.967,0,0,1-.435-.593c-.008-.192.085-.58.857-.58a1.274,1.274,0,0,1,1.072.792l0-.958a2.508,2.508,0,0,0-1.449-.457" fill="#fff"/>
        <rect id="Rectangle_3251" data-name="Rectangle 3251" width="37.195" height="0.372" transform="translate(111.135 734.322)" fill="#fff"/>
        <path id="Path_10941" data-name="Path 10941" d="M123.231,742.429a.894.894,0,0,1-.5.14c-.634,0-1.253-.217-1.494-1.329-.583-2.834-.589-2.84-.589-2.84a1.888,1.888,0,0,0-.58-.993h.992c.258,0,.6.229.785.993,0,0,.029.216.6,2.607.091.42.249,1.165.7,1.165a.254.254,0,0,0,.172-.111c.739-3.632.739-3.655.739-3.655s.153-.82-.144-1h.865c.256,0,.625.261.5,1.01-.027.208-.757,3.636-.956,4.52a1.628,1.628,0,0,1-.709,1.047h-1.368a2.292,2.292,0,0,0,.94-1.325s.041-.168.049-.23" fill="#fff"/>
        <path id="Path_10942" data-name="Path 10942" d="M138.754,737.676v.892a1.059,1.059,0,0,0-1.388-.207.551.551,0,0,0-.325.513v2.573a1.242,1.242,0,0,0,.518,1.022h-1.34c-.393,0-.393-1.014-.393-1.014V738.4s0-.815-.48-.993l.81-.009c.587,0,.809.158.863.942a1.137,1.137,0,0,1,1.048-1.03s.562,0,.687.365" fill="#fff"/>
        <path id="Path_10943" data-name="Path 10943" d="M146.087,737.329a2.337,2.337,0,0,1,2.291,2.62,2.47,2.47,0,0,1-2.291,2.629c-1.263,0-2.282-.872-2.282-2.629a2.466,2.466,0,0,1,2.282-2.62m-.018,4.661c.547,0,1.074-.932,1.074-2.1s-.527-2.1-1.074-2.1-1.058.95-1.058,2.1.518,2.1,1.058,2.1" fill="#fff"/>
        <path id="Path_10944" data-name="Path 10944" d="M117.694,739.637a1.5,1.5,0,0,1,1.553,1.064c.2.61.479,1.516,1.233,1.768h-1.192c-.163-.012-.76-.02-1.088-1.506-.115-.549-.506-1.326-1.056-.945v1.631a1.013,1.013,0,0,0,.463.82h-1.261c-.385-.04-.385-.885-.385-.885V737.37s0-.967-.444-1.239h.967c.441,0,.66.4.66,1.159v2.287s1.471-1.291,1.349-2.169h1.161c.109.8-1.96,2.229-1.96,2.229" fill="#fff"/>
        <path id="Path_10945" data-name="Path 10945" d="M113.858,740.888c0-.456-.315-.851-1.244-1.376-1.1-.626-1.478-1.168-1.49-1.934-.016-.868.795-1.56,1.927-1.56a2.959,2.959,0,0,1,1.629.522l.006,1.008a1.5,1.5,0,0,0-1.275-.994c-1,0-1.038.573-1.038.829s.143.5.561.749c.565.33,2.141,1.2,2.141,2.37a2.2,2.2,0,0,1-2.316,2.067,3.191,3.191,0,0,1-1.623-.46v-1.075a1.475,1.475,0,0,0,1.291.971c1.1,0,1.431-.675,1.431-1.117" fill="#fff"/>
        <path id="Path_10946" data-name="Path 10946" d="M142.294,737.43h1.075c-.247.218-.247.809-.247.809v3.216c0,.769.083,1.978-.816,2.54h-1.367a2.171,2.171,0,0,0,.994-1.893c0,.053-.139.476-.816.476a2.245,2.245,0,0,1-2.166-2.481c0-1.679.926-2.769,2.122-2.769a1.1,1.1,0,0,1,.9.5c.061-.4.326-.4.326-.4m-.85,4.593a.534.534,0,0,0,.469-.278v-3.136c-.267-.814-.86-.814-.86-.814-.764,0-.831,1.387-.831,2.355,0,1.017.375,1.873,1.222,1.873" fill="#fff"/>
        <path id="Path_10947" data-name="Path 10947" d="M133.3,741.621a.942.942,0,0,1-.708.362.681.681,0,0,1-.67-.7c0-1.124,1.091-1.455,1.378-1.783Zm1.724.853a1.279,1.279,0,0,1-.527-1v-2.848a1.531,1.531,0,0,0-1.55-1.32,2.044,2.044,0,0,0-1.257.459v.91a1.167,1.167,0,0,1,.977-.79c.571,0,.762.317.762.621a.854.854,0,0,1-.578.814c-.8.374-1.977.667-1.977,2.016a1.241,1.241,0,0,0,1.269,1.234,1.175,1.175,0,0,0,1.176-.7s.089.569.352.6Z" fill="#fff"/>
        <path id="Path_10948" data-name="Path 10948" d="M129.118,736.551c-.926-.007-1.616,1.141-1.616,2.78a2.994,2.994,0,0,0,1.119,2.607,1.412,1.412,0,0,0,1.783-.713l-.009,1.051a3.152,3.152,0,0,1-1.455.3,2.834,2.834,0,0,1-2.8-3.128c0-2.216,1.2-3.432,2.941-3.432a2.884,2.884,0,0,1,1.32.321l.014,1.1a1.445,1.445,0,0,0-1.3-.893" fill="#fff"/>
      </g>
    </g>
  </g>
</svg>