<svg xmlns="http://www.w3.org/2000/svg" xmlns:xlink="http://www.w3.org/1999/xlink" width="79.398" height="76.589" viewBox="0 0 79.398 76.589">
  <defs>
    <clipPath id="clip-path">
      <rect id="Rectangle_1430" data-name="Rectangle 1430" width="79.399" height="76.589" fill="none"/>
    </clipPath>
  </defs>
  <g id="Group_1152" data-name="Group 1152" transform="translate(-2141.229 -381.134)">
    <rect id="Rectangle_1428" data-name="Rectangle 1428" width="79.399" height="76.589" transform="translate(2141.229 381.134)" fill="#d61921"/>
    <g id="Group_1153" data-name="Group 1153" transform="translate(2141.229 381.134)">
      <g id="Group_1152-2" data-name="Group 1152" clip-path="url(#clip-path)">
        <path id="Path_4800" data-name="Path 4800" d="M2218.14,396.191c-.16.159-2.51,2.282-2.729,2.51a3.815,3.815,0,0,0-.8,2.287c0,.277.005,6.944,0,7.183a2.678,2.678,0,0,1-.574,1.484c-.179.18-1.286,1.185-1.384,1.291l.628.01c.2-.2,2.333-2.083,2.556-2.336a3.686,3.686,0,0,0,.98-2.475v-6.9a2.675,2.675,0,0,1,.734-1.889c.256-.285,1.1-.984,1.243-1.142Z" transform="translate(-2171.898 -387.599)" fill="#fff"/>
        <path id="Path_4801" data-name="Path 4801" d="M2216.648,428.522v2.865s.837.866,1,1.04c.773.821.764,2.318-1.684,4.7a4.955,4.955,0,0,1-3.336,1.573h-4.385l2.609,2.279h1.747a6.4,6.4,0,0,0,4.468-1.831,5.368,5.368,0,0,0,1.465-3.857v-3.734a3.022,3.022,0,0,0-1.008-2.2c-.118-.118-.878-.835-.878-.835" transform="translate(-2170.004 -401.481)" fill="#fff"/>
        <path id="Path_4802" data-name="Path 4802" d="M2192.4,411.968h-.9a2.361,2.361,0,0,1,.967,1.863c0,.437-.007,3.259,0,3.538.019.944.7,4.478,3.883,4.478h9.151s.031,5.614.031,5.854a2.531,2.531,0,0,1-.58,1.786c-.238.245-1.416,1.316-1.416,1.316l.659-.015c.268-.2,2.28-2.035,2.467-2.244a3.608,3.608,0,0,0,1.078-2.923V421.9s.814-.866,1.054-1.065,1.823-1.7,1.823-1.7c0,1.448.689,2.09,1.4,2.09a1.368,1.368,0,0,0,.937-.4c.333-.317,1.411-1.306,1.654-1.543.743-.733,1.157-3.024-.649-3.024h-.017c-1.1.009-2.4,1.591-2.551,1.779a3.808,3.808,0,0,1-.764-.806v1.4a2.191,2.191,0,0,1-1.452.777h-1.433v-1.415a2.871,2.871,0,0,1,.569-1.721c.24-.253,1.315-1.219,1.413-1.308l-.659.007c-.252.2-2.476,2.228-2.757,2.544a4.032,4.032,0,0,0-.786,1.893l-10.359.01a2.328,2.328,0,0,1-2.133-2.357c0-.135.036-2.655.036-2.655,0-2.167-.564-2.395-.665-2.438m20.975,7.805a1.333,1.333,0,0,1-.78-.355,8.931,8.931,0,0,1-.887-1.025,1.579,1.579,0,0,1,1.038-.324.935.935,0,0,1,.746.256c.54.741.417,1.449-.117,1.449" transform="translate(-2162.814 -394.373)" fill="#fff"/>
        <path id="Path_4803" data-name="Path 4803" d="M2203.242,431.152l-1.75,1.748c1.191,1.191,1.594,1.787,1.711,2.325.092-.092,1.69-1.421,1.69-1.92,0-.73-.481-.98-1.651-2.153" transform="translate(-2167.104 -402.61)" fill="#fff"/>
        <path id="Path_4804" data-name="Path 4804" d="M2204.73,396.154s-.319.309-1.2,1.185c-.468.468-.334,1.477.645,2.457,0,0,.026,1.8.026,2.465a.823.823,0,0,1-.211.451,5.082,5.082,0,0,0-2.722-1.3h-1.939a3.554,3.554,0,0,0-2.325,1.21,1.863,1.863,0,0,0-.123,2.409l1.339,1.337a12.338,12.338,0,0,1,0-3.673,1,1,0,0,1,.924-.691.734.734,0,0,1,.42.128,29.712,29.712,0,0,1,2.748,2.263s-3.534,3.694-3.675,3.835a1.927,1.927,0,0,1-1.112.518h-.024a1.315,1.315,0,0,1-1.091-.617s-.01,1.651-.01,1.8c0,.6.787,1.193,1.553,1.193h4.854a1.535,1.535,0,0,0,1.077-.4c.2-.18,1.5-1.492,1.63-1.632a1.286,1.286,0,0,0,.348-.934c0-.173,0-.976,0-1.845a5.077,5.077,0,0,0-1.408-3.193s.287-.218.305-.981c.007-.209,0-1.9,0-1.9s.583.55.614.778c0,0,.619-.635,1.018-1.036.454-.452-.3-1.4-.652-1.755a3.169,3.169,0,0,1-1.009-2.081m-6.091,12.733a3.981,3.981,0,0,0,1.01-.895c.1-.106,3.115-3.209,3.115-3.209a20.911,20.911,0,0,1,2.267,2.72c.265.463.559,1.383-.924,1.383h-5.467" transform="translate(-2164.919 -387.583)" fill="#fff"/>
        <path id="Path_4805" data-name="Path 4805" d="M2190.488,425.624h-.9a2.152,2.152,0,0,1,.965,1.9v4.363a5.463,5.463,0,0,0,5.187,5.467h2.379a3.422,3.422,0,0,0,2.789-1.111c.319-.281.73-.742.882-.91a3.027,3.027,0,0,0,1.025-2.47v-1.428a2.63,2.63,0,0,0-1.059-2.095c-.223-.221-.83-.8-.83-.8v2.926s.6.637.864.845a1.509,1.509,0,0,1-.9,2.667c-.227,0-4.9,0-5.219.01l-.077,0a4.628,4.628,0,0,1-4.443-4.553v-2.371c0-2.437-.667-2.437-.667-2.437" transform="translate(-2161.993 -400.236)" fill="#fff"/>
        <path id="Path_4806" data-name="Path 4806" d="M2196.977,431.165l-1.749,1.748c1.193,1.191,1.6,1.787,1.713,2.325.092-.092,1.69-1.421,1.69-1.92,0-.732-.48-.979-1.654-2.153" transform="translate(-2164.415 -402.616)" fill="#fff"/>
        <path id="Path_4807" data-name="Path 4807" d="M2162.285,450.359h-6.034a3.584,3.584,0,0,1,1.018,2.722l.031,7.311c0,1.836.735,1.888.735,1.888h5.945a1.643,1.643,0,0,0,1.817-1.487l.021-.7s-.428.881-2.2.881l-2.8,0c-.883,0-.816-.732-.893-1.36V455.6s.612-.015,1.306-.015c.233,0,.485-.01.744-.01a3.776,3.776,0,0,1,1.933.427,2.885,2.885,0,0,0-2.681-1.627h-1.3v-1.287a3.441,3.441,0,0,0-.271-1.451l1.844.007c1.6,0,2.836-.024,4.121.833,0,0-.243-2.117-3.334-2.117" transform="translate(-2147.679 -410.857)" fill="#fff"/>
        <path id="Path_4808" data-name="Path 4808" d="M2179.171,454.485a2.547,2.547,0,0,0-2.421,1.84s-.044-1.776-1.6-1.776l-1.519,0s.878.361.878,1.9l0,5.678c0,1.875.758,1.908.758,1.908h2.5a2.427,2.427,0,0,1-.959-1.923v-5.038a1.417,1.417,0,0,1,1.486-.984,1.387,1.387,0,0,1,1.27,1.354l0,4.682c0,1.9.749,1.906.749,1.906h2.515a2.481,2.481,0,0,1-.963-1.921l-.007-5.04a1.41,1.41,0,0,1,2.748.391s0,4.272,0,4.669c.01,1.88.717,1.9.742,1.9h0c1.312,0,2.515,0,2.515,0a2.438,2.438,0,0,1-.958-1.9v-5.115c0-1.985-1.624-2.514-2.83-2.514a2.444,2.444,0,0,0-2.281,1.8,2.677,2.677,0,0,0-2.627-1.809" transform="translate(-2155.144 -412.628)" fill="#fff"/>
        <path id="Path_4809" data-name="Path 4809" d="M2200.548,454.6h-1.517s.871.386.871,1.888l0,5.694v.009c0,1.879.75,1.889.766,1.889,1.31,0,2.5.005,2.5.005a2.407,2.407,0,0,1-.963-1.908l-.01-.009,0-5.444c0-2.124-1.115-2.124-1.651-2.124" transform="translate(-2166.048 -412.676)" fill="#fff"/>
        <path id="Path_4810" data-name="Path 4810" d="M2208.434,454.575l-1.517,0s.879.362.879,1.9v5.686c0,1.877.756,1.908.756,1.908h2.5a2.431,2.431,0,0,1-.959-1.924l0-4.656a1.356,1.356,0,0,1,.615-.96,2.012,2.012,0,0,1,1.1-.324,1.925,1.925,0,0,1,1.5.7V455.3a1.258,1.258,0,0,0-1.282-.682c-1.572,0-1.958,1.87-1.958,1.87-.127-1.477-.523-1.914-1.634-1.914" transform="translate(-2169.434 -412.667)" fill="#fff"/>
        <path id="Path_4811" data-name="Path 4811" d="M2234.588,450.79a7.762,7.762,0,0,1-1.687,1.888,14.472,14.472,0,0,1-2.2,1.306l1.591.027,0,6.6c0,1.831.766,1.831.766,1.831,1.374,0,2.5.005,2.5.005a2.365,2.365,0,0,1-.967-1.851v-6.579c.662,0,.206,0,.619,0a3.208,3.208,0,0,1,1.482.372l.007-1.431h-2.109Z" transform="translate(-2179.644 -411.042)" fill="#fff"/>
        <path id="Path_4812" data-name="Path 4812" d="M2245.35,454.511h-.026c-2.594.014-3.97,2.409-3.97,4.988,0,2.625,1.687,4.558,4.148,4.558,2.042,0,2.685-.747,2.685-.747l.007-1.531a2.144,2.144,0,0,1-1.9,1.222,2.564,2.564,0,0,1-1.027-.227,2.593,2.593,0,0,1-1.256-1.974c.883-1.078,1.985-.847,3.39-2.318,1.843-1.925.48-3.972-2.047-3.972m-1.5,5.259s-.315-4.378,1.332-4.5c.038,0,.073-.005.109-.005,1.294,0,.974,1.871.569,2.618-.634,1.169-1.462,1.291-2.01,1.889" transform="translate(-2184.219 -412.64)" fill="#fff"/>
        <path id="Path_4813" data-name="Path 4813" d="M2201.674,449.24a1.144,1.144,0,1,0,1.169,1.144,1.158,1.158,0,0,0-1.169-1.144" transform="translate(-2166.68 -410.376)" fill="#fff"/>
        <path id="Path_4814" data-name="Path 4814" d="M2221.255,454.58a4.144,4.144,0,0,0-2.352.694v1.654a2.107,2.107,0,0,1,1.823-1.311c1.275,0,1.369.636,1.363.953a1.348,1.348,0,0,1-.193.984c-.583,1.021-5.115,1.238-4.419,4.743a2.093,2.093,0,0,0,2.366,1.795,2.264,2.264,0,0,0,2.1-1.14c.168,1.056.7,1.117.7,1.117,1.309,0,2.5,0,2.5,0a2.39,2.39,0,0,1-.975-1.9v-5.33c0-1.275-1.414-2.266-2.917-2.266M2220.42,463a1.123,1.123,0,0,1-.98-1.2c0-2.368,1.938-2.695,2.456-3.326l.006,3.991a1.712,1.712,0,0,1-1.481.538" transform="translate(-2173.936 -412.669)" fill="#fff"/>
        <path id="Path_4815" data-name="Path 4815" d="M2258,454.471c-1.5,0-2.866.992-2.839,2.266a3,3,0,0,0,1.409,2.527,11.555,11.555,0,0,0,1.292.811,1.624,1.624,0,0,1,1,1.376,1.679,1.679,0,0,1-1.862,1.552,2.126,2.126,0,0,1-1.826-1.337v1.694a4.4,4.4,0,0,0,2.385.672,3.29,3.29,0,0,0,3.406-3.115,2.786,2.786,0,0,0-.585-1.651,8.7,8.7,0,0,0-2.454-1.824,1.59,1.59,0,0,1-.72-.981c-.014-.317.14-.958,1.417-.958a2.107,2.107,0,0,1,1.772,1.31l0-1.586a4.144,4.144,0,0,0-2.4-.756" transform="translate(-2190.15 -412.622)" fill="#fff"/>
        <rect id="Rectangle_1429" data-name="Rectangle 1429" width="61.526" height="0.615" transform="translate(9.092 54.523)" fill="#fff"/>
        <path id="Path_4816" data-name="Path 4816" d="M2188.3,493.931a1.481,1.481,0,0,1-.821.232c-1.047,0-2.072-.358-2.47-2.2-.965-4.689-.975-4.7-.975-4.7a3.129,3.129,0,0,0-.958-1.642h1.64c.427,0,1,.379,1.3,1.642,0,0,.048.358.985,4.313.15.694.412,1.926,1.156,1.926a.421.421,0,0,0,.285-.183c1.222-6.009,1.222-6.046,1.222-6.046s.253-1.356-.238-1.653h1.432c.423,0,1.034.432.826,1.671-.044.345-1.251,6.014-1.58,7.476a2.7,2.7,0,0,1-1.173,1.733h-2.263a3.794,3.794,0,0,0,1.555-2.192s.067-.277.081-.381" transform="translate(-2159.196 -425.999)" fill="#fff"/>
        <path id="Path_4817" data-name="Path 4817" d="M2232.985,485.952v1.474a1.753,1.753,0,0,0-2.3-.341.912.912,0,0,0-.538.849v4.257a2.058,2.058,0,0,0,.857,1.69h-2.217c-.649,0-.649-1.678-.649-1.678v-5.052s0-1.347-.794-1.642l1.339-.015c.972,0,1.339.262,1.428,1.558a1.88,1.88,0,0,1,1.733-1.7s.931,0,1.137.6" transform="translate(-2178.206 -425.88)" fill="#fff"/>
        <path id="Path_4818" data-name="Path 4818" d="M2255.641,485.4c2.121,0,3.79,1.582,3.79,4.333a4.085,4.085,0,0,1-3.79,4.349c-2.088,0-3.775-1.443-3.775-4.349a4.079,4.079,0,0,1,3.775-4.333m-.03,7.709c.906,0,1.776-1.541,1.776-3.476,0-1.91-.871-3.482-1.776-3.482s-1.75,1.572-1.75,3.482c0,1.935.857,3.476,1.75,3.476" transform="translate(-2188.733 -425.902)" fill="#fff"/>
        <path id="Path_4819" data-name="Path 4819" d="M2173.468,487.726a2.481,2.481,0,0,1,2.568,1.76c.336,1.008.794,2.506,2.04,2.925H2176.1c-.269-.021-1.257-.034-1.8-2.493-.19-.907-.836-2.192-1.747-1.562v2.7a1.677,1.677,0,0,0,.766,1.358h-2.086c-.636-.067-.636-1.464-.636-1.464v-6.971s0-1.6-.736-2.049h1.6c.73,0,1.092.661,1.092,1.916v3.783s2.435-2.136,2.232-3.588h1.92c.18,1.332-3.241,3.687-3.241,3.687" transform="translate(-2153.525 -424.411)" fill="#fff"/>
        <path id="Path_4820" data-name="Path 4820" d="M2161.655,489.655c0-.756-.521-1.409-2.059-2.276-1.813-1.036-2.444-1.932-2.465-3.2-.026-1.436,1.316-2.582,3.189-2.582a4.89,4.89,0,0,1,2.694.864l.01,1.668a2.488,2.488,0,0,0-2.11-1.646c-1.657,0-1.716.948-1.716,1.371s.237.826.927,1.239c.935.547,3.542,1.992,3.542,3.921a3.642,3.642,0,0,1-3.831,3.42,5.278,5.278,0,0,1-2.685-.761v-1.779a2.441,2.441,0,0,0,2.136,1.606c1.816,0,2.367-1.116,2.367-1.847" transform="translate(-2148.057 -424.27)" fill="#fff"/>
        <path id="Path_4821" data-name="Path 4821" d="M2243.327,485.565h1.779c-.41.36-.41,1.339-.41,1.339v5.319c0,1.272.137,3.272-1.349,4.2h-2.261a3.594,3.594,0,0,0,1.644-3.132c0,.087-.229.789-1.349.789-2.134,0-3.583-1.738-3.583-4.1,0-2.778,1.531-4.58,3.509-4.58a1.815,1.815,0,0,1,1.481.825c.1-.656.539-.656.539-.656m-1.406,7.6a.885.885,0,0,0,.777-.459v-5.188c-.442-1.347-1.423-1.347-1.423-1.347-1.263,0-1.375,2.3-1.375,3.9,0,1.682.62,3.1,2.021,3.1" transform="translate(-2182.693 -425.901)" fill="#fff"/>
        <path id="Path_4822" data-name="Path 4822" d="M2218.405,492.466a1.559,1.559,0,0,1-1.171.6,1.126,1.126,0,0,1-1.109-1.154c0-1.86,1.805-2.407,2.28-2.95Zm2.853,1.411a2.115,2.115,0,0,1-.873-1.658v-4.711a2.533,2.533,0,0,0-2.565-2.184,3.382,3.382,0,0,0-2.079.759v1.505a1.931,1.931,0,0,1,1.616-1.306c.945,0,1.26.524,1.26,1.027a1.412,1.412,0,0,1-.955,1.347c-1.32.619-3.271,1.1-3.271,3.334a2.053,2.053,0,0,0,2.1,2.042,1.941,1.941,0,0,0,1.944-1.15s.147.941.583.995Z" transform="translate(-2172.643 -425.87)" fill="#fff"/>
        <path id="Path_4823" data-name="Path 4823" d="M2205.591,482.482c-1.533-.012-2.673,1.888-2.673,4.6,0,2.059.862,3.84,1.85,4.313a2.338,2.338,0,0,0,2.95-1.179l-.015,1.738a5.219,5.219,0,0,1-2.407.5c-2.835,0-4.627-2.2-4.627-5.174,0-3.665,1.992-5.677,4.865-5.677a4.768,4.768,0,0,1,2.184.531l.022,1.826a2.388,2.388,0,0,0-2.149-1.476" transform="translate(-2166.751 -424.271)" fill="#fff"/>
      </g>
    </g>
  </g>
</svg>
